<?xml version="1.0" encoding="UTF-8"?>
<svg width="24" height="24" version="1.1" viewBox="0 0 24 24" xmlns="http://www.w3.org/2000/svg">
 <path d="m12 3c-4.9587 0-9 4.0413-9 9 0 1.5668 0.4049 3.0411 1.1133 4.3262l1.4336-1.6016c-0.35179-0.83652-0.54688-1.7573-0.54688-2.7246 0-3.8778 3.1222-7 7-7 0.41005 0 0.80887 0.042354 1.1992 0.10938l1.1504-0.83789c-0.013509-0.15761-0.076989-0.24121-0.058593-0.42773 0.016386-0.16616 0.059727-0.33621 0.11523-0.50586-0.76741-0.21388-1.572-0.33789-2.4062-0.33789zm8.6621 6.5957c-0.16965 0.055737-0.3397 0.098848-0.50586 0.11523-0.18688 0.01843-0.26989-0.046966-0.42773-0.060547l-0.83789 1.1504c0.067021 0.39035 0.10938 0.78917 0.10938 1.1992 0 3.8778-3.1222 7-7 7-0.96728 0-1.8881-0.19509-2.7246-0.54688l-1.6016 1.4336c1.2851 0.70838 2.7594 1.1133 4.3262 1.1133 4.9587 0 9-4.0413 9-9 0-0.83355-0.12434-1.6374-0.33789-2.4043z" color="#000000" color-rendering="auto" dominant-baseline="auto" image-rendering="auto" shape-rendering="auto" solid-color="#000000" stop-color="#000000" style="font-feature-settings:normal;font-variant-alternates:normal;font-variant-caps:normal;font-variant-east-asian:normal;font-variant-ligatures:normal;font-variant-numeric:normal;font-variant-position:normal;font-variation-settings:normal;inline-size:0;isolation:auto;mix-blend-mode:normal;shape-margin:0;shape-padding:0;text-decoration-color:#000000;text-decoration-line:none;text-decoration-style:solid;text-indent:0;text-orientation:mixed;text-transform:none;white-space:normal"/>
 <path d="m17.689 3.5343c-0.35586-0.35586-0.59003-0.5162-1.2045 0.09819-0.25853 0.25853-0.2436 0.54145-0.12802 0.86386 0.01217 0.030417 0.02693 0.057274 0.03605 0.090738 0.09122 0.26763 0.12218 0.48688-0.09074 0.69979l-0.18272 0.17029-4.1428 3.0167c-0.30418 0.20072-0.67223 0.25283-1.0068 0.16159-0.05475-0.012164-0.10615-0.034644-0.15786-0.055933-0.90945-0.28895-2.0374-0.16263-2.7643 0.5643-0.48361 0.48361-0.5423 0.75286-0.18644 1.1087l2.307 2.307-5.4094 6.0458 0.6364 0.6364 6.0457-5.4094 2.307 2.307c0.35586 0.35586 0.60382 0.31846 1.1087-0.18644 0.72694-0.72694 0.85325-1.8549 0.5643-2.7644-0.02129-0.05171-0.04377-0.10311-0.05593-0.15786-0.09125-0.33458-0.03916-0.70264 0.16159-1.0068l3.0167-4.1428 0.17029-0.18272c0.21596-0.21596 0.43517-0.18502 0.69979-0.090738l0.09074 0.036046c0.32241 0.11558 0.60532 0.13051 0.86386-0.12802 0.61135-0.61135 0.45406-0.84856 0.09819-1.2045l-2.7768-2.7768z" stroke-width=".9"/>
</svg>
