<?xml version="1.0" encoding="UTF-8"?>
<svg width="24" height="24" version="1.1" viewBox="0 0 24 24" xmlns="http://www.w3.org/2000/svg">
 <path d="m14.841 2.414a10 10 0 0 0-9.9119 2.5149 10 10 0 0 0-1.5799 12.076l1.4253-1.5938a8 8 0 0 1 1.5689-9.0681 8 8 0 0 1 7.5503-2.1089l0.86455-0.62977c-0.02557-0.19613-0.10254-0.31778-0.07872-0.55933 0.02045-0.2074 0.08314-0.421 0.16158-0.63115zm6.7368 6.7479c-0.20755 0.076786-0.41816 0.13863-0.62286 0.15882-0.24155 0.023822-0.36321-0.053149-0.55933-0.078721l-0.63115 0.86869a8 8 0 0 1-2.1075 7.5462 8 8 0 0 1-9.0695 1.5703l-1.5868 1.4184a10 10 0 0 0 12.071-1.5744 10 10 0 0 0 2.5066-9.9092z"/>
 <path d="m18.236 2.6792c-0.3954-0.3954-0.65559-0.57356-1.3383 0.1091-0.28726 0.28726-0.27067 0.60161-0.14225 0.95984 0.01352 0.033797 0.02992 0.063638 0.04005 0.10082 0.10136 0.29737 0.13575 0.54098-0.10082 0.77754l-0.20302 0.18921-4.6031 3.3519c-0.33798 0.22302-0.74692 0.28092-1.1187 0.17954-0.060836-0.013516-0.11794-0.038493-0.1754-0.062148-1.0105-0.32106-2.2638-0.1807-3.0715 0.627-0.53734 0.53734-0.60256 0.83651-0.20716 1.2319l2.5633 2.5633-6.0104 6.7175 0.70711 0.70711 6.7175-6.0104 2.5633 2.5633c0.3954 0.3954 0.67091 0.35384 1.2319-0.20716 0.80771-0.80771 0.94806-2.061 0.627-3.0715-0.02366-0.05745-0.04863-0.11457-0.06215-0.1754-0.10139-0.37175-0.04351-0.78071 0.17954-1.1187l3.3519-4.6031 0.18921-0.20302c0.23995-0.23995 0.48352-0.20558 0.77754-0.10082l0.10082 0.040051c0.35823 0.12842 0.67258 0.14501 0.95984-0.14225 0.67928-0.67928 0.50451-0.94285 0.1091-1.3383l-3.0853-3.0853z"/>
</svg>
