<?xml version="1.0" encoding="UTF-8"?>
<svg width="24" height="24" version="1.1" viewBox="0 0 24 24" xmlns="http://www.w3.org/2000/svg">
 <g>
  <path d="m12 2c-5.511 0-10 4.489-10 10 0 5.511 4.489 10 10 10 5.511 0 10-4.489 10-10 0-0.37692-0.021611-0.75875-0.0625-1.125l-1.9688 1.9375c-0.001023 0.010126 0.00106 0.021136 0 0.03125-0.42232 4.0278-3.8259 7.1562-7.9688 7.1562-4.4301 0-8-3.5699-8-8 0-4.4301 3.5699-8 8-8 2.3099 0 4.3857 0.97427 5.8438 2.5312l1.4062-1.4062c-1.8238-1.9207-4.4008-3.125-7.25-3.125z" color="#000000" style="block-progression:tb;text-indent:0;text-transform:none"/>
  <path d="M 12,15.17 7.83,11 6.41,12.41 12,18 24,6 22.59,4.59 z"/>
 </g>
</svg>
