<?xml version="1.0" encoding="UTF-8"?>
<svg width="16" height="16" version="1.1" viewBox="0 0 16 16" xmlns="http://www.w3.org/2000/svg">
 <path d="m12.299 1.2753c-0.31094-0.31094-0.51555-0.45104-1.0525 0.085795-0.2259 0.2259-0.21285 0.4731-0.11186 0.75481 0.01063 0.026577 0.02353 0.050044 0.0315 0.079284 0.07971 0.23385 0.10676 0.42542-0.07929 0.61145l-0.15965 0.14879-3.6198 2.6359c-0.26578 0.17538-0.58737 0.22091-0.87971 0.14119-0.047839-0.010629-0.09275-0.030271-0.13793-0.048872-0.79465-0.25248-1.7802-0.1421-2.4154 0.49307-0.42256 0.42256-0.47384 0.65783-0.16291 0.96875l2.0158 2.0158-4.7266 5.2826 0.55607 0.55607 5.2825-4.7266 2.0158 2.0158c0.31094 0.31094 0.5276 0.27826 0.96875-0.1629 0.63518-0.63518 0.74554-1.6208 0.49307-2.4154-0.0186-0.045183-0.03824-0.090094-0.04887-0.13793-0.07973-0.29235-0.03422-0.61394 0.14119-0.87971l2.6359-3.6198 0.14879-0.15966c0.1887-0.1887 0.38024-0.16166 0.61146-0.079284l0.07929 0.031496c0.28171 0.10099 0.52891 0.11404 0.75481-0.11186 0.53418-0.53418 0.39674-0.74145 0.08579-1.0525l-2.4263-2.4263z" stroke-width=".78639"/>
</svg>
