<?xml version="1.0" encoding="UTF-8" standalone="no"?>
<svg
   xmlns:dc="http://purl.org/dc/elements/1.1/"
   xmlns:cc="http://creativecommons.org/ns#"
   xmlns:rdf="http://www.w3.org/1999/02/22-rdf-syntax-ns#"
   xmlns:svg="http://www.w3.org/2000/svg"
   xmlns="http://www.w3.org/2000/svg"
   xmlns:sodipodi="http://sodipodi.sourceforge.net/DTD/sodipodi-0.dtd"
   xmlns:inkscape="http://www.inkscape.org/namespaces/inkscape"
   width="62.720219"
   height="62.720219"
   shape-rendering="crispEdges"
   version="1.1"
   viewBox="0 0 62.720219 62.720219"
   id="svg196"
   sodipodi:docname="favicon.svg"
   inkscape:version="1.0.2 (e86c870879, 2021-01-15)">
  <metadata
     id="metadata200">
    <rdf:RDF>
      <cc:Work
         rdf:about="">
        <dc:format>image/svg+xml</dc:format>
        <dc:type
           rdf:resource="http://purl.org/dc/dcmitype/StillImage" />
        <dc:title></dc:title>
      </cc:Work>
    </rdf:RDF>
  </metadata>
  <sodipodi:namedview
     pagecolor="#ffffff"
     bordercolor="#666666"
     borderopacity="1"
     objecttolerance="10"
     gridtolerance="10"
     guidetolerance="10"
     inkscape:pageopacity="0"
     inkscape:pageshadow="2"
     inkscape:window-width="1920"
     inkscape:window-height="1043"
     id="namedview198"
     showgrid="false"
     inkscape:zoom="13.28125"
     inkscape:cx="31.360105"
     inkscape:cy="31.359985"
     inkscape:window-x="0"
     inkscape:window-y="0"
     inkscape:window-maximized="1"
     inkscape:current-layer="svg196"
     inkscape:document-rotation="0"
     inkscape:pagecheckerboard="true"
     showguides="true"
     inkscape:guide-bbox="true" />
  <defs
     id="defs8">
    <clipPath
       id="clipPath5166">
      <path
         d="m 54,25 a 29,29 0 0 0 -4.8105,0.4082 l -0.60547,3.1934 a 26,26 0 0 0 -8.7383,3.5938 l -2.6367,-1.7949 a 29,29 0 0 0 -6.8184,6.7969 l 1.8164,2.666 a 26,26 0 0 0 -3.627,8.7246 l -3.1445,0.59766 a 29,29 0 0 0 -0.43555,4.8145 29,29 0 0 0 0.4082,4.8105 l 3.1934,0.60547 a 26,26 0 0 0 3.5938,8.7383 l -1.7949,2.6367 a 29,29 0 0 0 6.7969,6.8184 l 2.666,-1.8164 a 26,26 0 0 0 8.7246,3.627 l 0.59766,3.1445 a 29,29 0 0 0 4.8145,0.43555 29,29 0 0 0 4.8105,-0.4082 l 0.60547,-3.1934 a 26,26 0 0 0 8.7383,-3.5938 l 2.6367,1.7949 a 29,29 0 0 0 6.8184,-6.7969 l -1.8164,-2.666 a 26,26 0 0 0 3.627,-8.7246 l 3.1445,-0.59766 a 29,29 0 0 0 0.43555,-4.8145 29,29 0 0 0 -0.4082,-4.8105 l -3.1934,-0.60547 a 26,26 0 0 0 -3.5938,-8.7383 l 1.7949,-2.6367 a 29,29 0 0 0 -6.7969,-6.8184 l -2.666,1.8164 a 26,26 0 0 0 -8.7246,-3.627 L 58.8145,25.43555 A 29,29 0 0 0 54,25 Z m 0,10 A 19,19 0 0 1 73,54 19,19 0 0 1 54,73 19,19 0 0 1 35,54 19,19 0 0 1 54,35 Z"
         fill="#ff00ff"
         style="paint-order:normal"
         id="path2" />
    </clipPath>
    <clipPath
       id="clipPath5332">
      <path
         d="m 54,25 a 29,29 0 0 0 -4.8105,0.4082 l -0.60547,3.1934 a 26,26 0 0 0 -8.7383,3.5938 l -2.6367,-1.7949 a 29,29 0 0 0 -6.8184,6.7969 l 1.8164,2.666 a 26,26 0 0 0 -3.627,8.7246 l -3.1445,0.59766 a 29,29 0 0 0 -0.43555,4.8145 29,29 0 0 0 0.4082,4.8105 l 3.1934,0.60547 a 26,26 0 0 0 3.5938,8.7383 l -1.7949,2.6367 a 29,29 0 0 0 6.7969,6.8184 l 2.666,-1.8164 a 26,26 0 0 0 8.7246,3.627 l 0.59766,3.1445 a 29,29 0 0 0 4.8145,0.43555 29,29 0 0 0 4.8105,-0.4082 l 0.60547,-3.1934 a 26,26 0 0 0 8.7383,-3.5938 l 2.6367,1.7949 a 29,29 0 0 0 6.8184,-6.7969 l -1.8164,-2.666 a 26,26 0 0 0 3.627,-8.7246 l 3.1445,-0.59766 a 29,29 0 0 0 0.43555,-4.8145 29,29 0 0 0 -0.4082,-4.8105 l -3.1934,-0.60547 a 26,26 0 0 0 -3.5938,-8.7383 l 1.7949,-2.6367 a 29,29 0 0 0 -6.7969,-6.8184 l -2.666,1.8164 a 26,26 0 0 0 -8.7246,-3.627 L 58.8145,25.43555 A 29,29 0 0 0 54,25 Z"
         fill="#ffffff"
         style="paint-order:normal"
         id="path5" />
    </clipPath>
  </defs>
  <path
     d="m 30.60268,18.785576 a 12.600785,12.600785 0 0 0 -7.831538,3.366636 c 0.205653,-0.0072 0.406681,-0.03138 0.614157,-0.03138 9.534364,0 17.214187,7.679823 17.214187,17.214187 0,0.204448 -0.02438,0.402502 -0.03138,0.605182 a 12.600785,12.600785 0 0 0 3.357685,-7.84944 C 41.728458,25.889294 36.807841,20.975103 30.603159,18.785343 Z m -7.21745,6.778029 c -1.180893,0 -2.322767,0.165727 -3.418164,0.448281 a 12.600785,12.600785 0 0 0 -1.208091,5.348104 12.600785,12.600785 0 0 0 0.0023,0.04035 c 1.356478,-0.787883 2.931576,-1.246193 4.624075,-1.246193 5.097694,0 9.1809,4.083205 9.1809,9.1809 0,1.692499 -0.458357,3.267597 -1.246192,4.624075 a 12.600785,12.600785 0 0 0 0.04036,0.0022 12.600785,12.600785 0 0 0 5.348104,-1.205912 c 0.282909,-1.096085 0.44828,-2.238762 0.44828,-3.420459 0,-7.578488 -6.192861,-13.77135 -13.77135,-13.77135 z m 1.089337,8.665392 c -2.218335,0 -4.016644,1.798309 -4.016644,4.016644 0,2.218335 1.798309,4.016644 4.016644,4.016644 2.218335,0 4.016643,-1.798309 4.016643,-4.016644 0,-2.218335 -1.798308,-4.016644 -4.016643,-4.016644 z"
     fill="#eeeeee"
     style="stroke-width:1.14761;paint-order:normal"
     id="path170" />
  <circle
     cx="31.360106"
     cy="31.359968"
     r="20.657024"
     fill="#424242"
     style="stroke-width:1.14761;paint-order:normal;fill:#212529;fill-opacity:1"
     id="circle172" />
  <path
     d="m 31.355513,18.74541 a 12.623738,12.623738 0 0 0 -7.248779,2.308652 17.214188,17.214188 0 0 1 0.363117,-0.01346 17.214188,17.214188 0 0 1 17.214187,17.214188 17.214188,17.214188 0 0 1 -0.02018,0.385528 12.623738,12.623738 0 0 0 2.315423,-7.271158 12.623738,12.623738 0 0 0 -12.623738,-12.623737 z m -6.885675,6.311868 a 13.197544,13.197544 0 0 0 -4.446998,0.784497 12.623738,12.623738 0 0 0 -1.282113,5.240458 9.1809,9.1809 0 0 1 5.729111,-2.008322 9.1809,9.1809 0 0 1 9.1809,9.1809 9.1809,9.1809 0 0 1 -2.012797,5.722341 12.623738,12.623738 0 0 0 5.235982,-1.26421 13.197544,13.197544 0 0 0 0.793471,-4.458245 13.197544,13.197544 0 0 0 -13.197543,-13.197544 z m 0,8.607094 a 4.59045,4.59045 0 0 0 -4.59045,4.59045 4.59045,4.59045 0 0 0 4.59045,4.59045 4.59045,4.59045 0 0 0 4.59045,-4.59045 4.59045,4.59045 0 0 0 -4.59045,-4.59045 z"
     fill="#eeeeee"
     style="stroke-width:1.14761;paint-order:normal;fill:#f8f9fa;fill-opacity:1"
     id="path176" />
  <path
     d="M 31.360104,0 A 31.359959,31.359959 0 0 0 26.222136,0.43346695 L 25.649684,4.2451495 a 27.741501,27.741501 0 0 0 -9.444292,3.889359 L 13.149967,5.8753848 A 31.359959,31.359959 0 0 0 5.8683047,13.13823 l 2.2756482,3.081359 a 27.741501,27.741501 0 0 0 -3.922408,9.432472 L 0.46172715,26.217444 A 31.359959,31.359959 0 0 0 0,31.360116 31.359959,31.359959 0 0 0 0.43346695,36.498084 l 3.81168265,0.572452 a 27.741501,27.741501 0 0 0 3.8893589,9.444292 l -2.2591237,3.055425 a 31.359959,31.359959 0 0 0 7.2628452,7.281662 l 3.081359,-2.275647 a 27.741501,27.741501 0 0 0 9.432472,3.922406 l 0.565383,3.759819 a 31.359959,31.359959 0 0 0 5.142672,0.461726 31.359959,31.359959 0 0 0 5.137968,-0.433467 l 0.572452,-3.811682 a 27.741501,27.741501 0 0 0 9.444292,-3.889359 l 3.055425,2.259124 a 31.359959,31.359959 0 0 0 7.281662,-7.262845 l -2.275647,-3.081359 a 27.741501,27.741501 0 0 0 3.922406,-9.432472 l 3.759819,-0.565383 a 31.359959,31.359959 0 0 0 0.461726,-5.142672 31.359959,31.359959 0 0 0 -0.433467,-5.137968 L 58.47507,25.649684 a 27.741501,27.741501 0 0 0 -3.889359,-9.444292 l 2.259124,-3.055425 A 31.359959,31.359959 0 0 0 49.58199,5.8683046 L 46.500631,8.1439529 A 27.741501,27.741501 0 0 0 37.068159,4.2215449 L 36.502776,0.46172705 A 31.359959,31.359959 0 0 0 31.360104,0 Z m 0,10.85537 A 20.504588,20.504588 0 0 1 51.864691,31.359961 20.504588,20.504588 0 0 1 31.360104,51.864548 20.504588,20.504588 0 0 1 10.855514,31.359961 20.504588,20.504588 0 0 1 31.360104,10.85537 Z"
     fill="#eeeeee"
     style="opacity:1;fill:#adb5bd;fill-opacity:1;stroke-width:1.20616;paint-order:normal;shape-rendering:crispEdges"
     id="path182" />
</svg>
