<?xml version="1.0" encoding="UTF-8"?>
<svg width="72" height="72" shape-rendering="crispEdges" version="1.1" viewBox="0 0 72 72" xmlns="http://www.w3.org/2000/svg">
 <defs>
  <clipPath id="clipPath5166">
   <path d="m54 25a29 29 0 0 0-4.8105 0.4082l-0.60547 3.1934a26 26 0 0 0-8.7383 3.5938l-2.6367-1.7949a29 29 0 0 0-6.8184 6.7969l1.8164 2.666a26 26 0 0 0-3.627 8.7246l-3.1445 0.59766a29 29 0 0 0-0.43555 4.8145 29 29 0 0 0 0.4082 4.8105l3.1934 0.60547a26 26 0 0 0 3.5938 8.7383l-1.7949 2.6367a29 29 0 0 0 6.7969 6.8184l2.666-1.8164a26 26 0 0 0 8.7246 3.627l0.59766 3.1445a29 29 0 0 0 4.8145 0.43555 29 29 0 0 0 4.8105-0.4082l0.60547-3.1934a26 26 0 0 0 8.7383-3.5938l2.6367 1.7949a29 29 0 0 0 6.8184-6.7969l-1.8164-2.666a26 26 0 0 0 3.627-8.7246l3.1445-0.59766a29 29 0 0 0 0.43555-4.8145 29 29 0 0 0-0.4082-4.8105l-3.1934-0.60547a26 26 0 0 0-3.5938-8.7383l1.7949-2.6367a29 29 0 0 0-6.7969-6.8184l-2.666 1.8164a26 26 0 0 0-8.7246-3.627l-0.59766-3.1445a29 29 0 0 0-4.8145-0.43555zm0 10a19 19 0 0 1 19 19 19 19 0 0 1-19 19 19 19 0 0 1-19-19 19 19 0 0 1 19-19z" fill="#f0f" style="paint-order:normal"/>
  </clipPath>
  <clipPath id="clipPath5332">
   <path d="m54 25a29 29 0 0 0-4.8105 0.4082l-0.60547 3.1934a26 26 0 0 0-8.7383 3.5938l-2.6367-1.7949a29 29 0 0 0-6.8184 6.7969l1.8164 2.666a26 26 0 0 0-3.627 8.7246l-3.1445 0.59766a29 29 0 0 0-0.43555 4.8145 29 29 0 0 0 0.4082 4.8105l3.1934 0.60547a26 26 0 0 0 3.5938 8.7383l-1.7949 2.6367a29 29 0 0 0 6.7969 6.8184l2.666-1.8164a26 26 0 0 0 8.7246 3.627l0.59766 3.1445a29 29 0 0 0 4.8145 0.43555 29 29 0 0 0 4.8105-0.4082l0.60547-3.1934a26 26 0 0 0 8.7383-3.5938l2.6367 1.7949a29 29 0 0 0 6.8184-6.7969l-1.8164-2.666a26 26 0 0 0 3.627-8.7246l3.1445-0.59766a29 29 0 0 0 0.43555-4.8145 29 29 0 0 0-0.4082-4.8105l-3.1934-0.60547a26 26 0 0 0-3.5938-8.7383l1.7949-2.6367a29 29 0 0 0-6.7969-6.8184l-2.666 1.8164a26 26 0 0 0-8.7246-3.627l-0.59766-3.1445a29 29 0 0 0-4.8145-0.43555z" fill="#fff" style="paint-order:normal"/>
  </clipPath>
 </defs>
 <g transform="translate(-18,-18)" display="none">
  <g>
   <rect width="108" height="108" fill="#ff6d00" shape-rendering="crispEdges"/>
   <path d="m70.086 0c8.1721 3.4909 15.578 8.9613 21.414 16.5 15.841 20.463 14.236 51.809-7.125 67.875-16.559 12.454-41.759 11.017-54.375-6.375-9.4761-13.063-8.2061-32.801 5.625-42.375 9.9771-6.9062 24.935-5.8033 31.875 4.875 4.7443 7.3003 3.8079 18.162-4.125 22.875-5.0333 2.9901-12.482 2.2188-15.375-3.375-1.6427-3.1768-1.0333-7.8967 2.625-9.375 1.7323-0.7 4.4044-0.24448 4.875 1.875 0.15617 0.70335-0.16766 1.9901-1.125 1.875-0.08354-0.01004-0.54148-0.20852-0.375-0.375s-0.29146-0.36496-0.375-0.375c-0.95734-0.11507-1.2812 1.1716-1.125 1.875 0.47059 2.1195 3.1427 2.575 4.875 1.875 3.6583-1.4783 4.2677-6.1982 2.625-9.375-2.8925-5.5938-10.342-6.3651-15.375-3.375-7.9329 4.7127-8.8693 15.575-4.125 22.875 6.9397 10.678 21.898 11.781 31.875 4.875 13.831-9.5739 15.101-29.312 5.625-42.375-12.616-17.392-37.816-18.829-54.375-6.375-21.361 16.066-22.966 47.412-7.125 67.875 5.8358 7.5386 13.242 13.009 21.414 16.5h70.086v-108z" fill="#ffab00" shape-rendering="crispEdges"/>
   <rect transform="scale(1,-1)" y="-108" width="108" height="108" fill="#ff6d00"/>
   <path d="m75.326 0c6.7747 3.4689 12.943 8.3268 18.039 14.633 17.393 21.522 15.994 54.816-6.2031 72.529-18.127 14.466-46.07 13.223-60.811-5.5137-11.887-15.109-10.788-38.311 4.8672-50.43 12.446-9.6343 31.476-8.6718 41.303 4.2598 7.6859 10.114 6.8522 25.509-3.6914 33.352-8.093 6.0197-20.351 5.3031-26.494-3.166-4.6135-6.36-4.0064-15.941 2.6797-20.648 4.8931-3.4453 12.221-2.9381 15.734 2.2344 2.4931 3.6702 2.0761 9.1314-1.8301 11.67-2.6693 1.7347-6.6142 1.4003-8.375-1.4648-1.1481-1.8682-0.88662-4.6133 1.1406-5.7715 1.245-0.71125 3.0628-0.51306 3.7715 0.85742 0.40203 0.77747 0.25945 1.9124-0.61328 2.3027-0.44359 0.19838-1.0943 0.09981-1.2754-0.41211l0.86328-0.86328c-0.18105-0.51192-0.8318-0.61049-1.2754-0.41211-0.87273 0.39029-1.0153 1.5233-0.61328 2.3008 0.70867 1.3705 2.5265 1.5687 3.7715 0.85742 2.0272-1.1582 2.2887-3.9013 1.1406-5.7695-1.7608-2.8651-5.7057-3.1996-8.375-1.4648-3.9062 2.5386-4.3232 7.9997-1.8301 11.67 3.5136 5.1725 10.841 5.6797 15.734 2.2344 6.6861-4.7078 7.2932-14.288 2.6797-20.648-6.1435-8.4691-18.401-9.1857-26.494-3.166-10.544 7.8425-11.377 23.237-3.6914 33.352 9.8269 12.932 28.857 13.894 41.303 4.2598 15.655-12.119 16.754-35.321 4.8672-50.43-14.74-18.736-42.683-19.979-60.811-5.5137-22.197 17.714-23.596 51.006-6.2031 72.527 5.0962 6.306 11.264 11.166 18.039 14.635h-32.674v-92.891c2.3439-2.637 4.9045-5.1224 7.7012-7.4082 3.7445-3.0605 7.8009-5.6217 12.053-7.7012zm32.674 92.881v15.119h-19.758c4.2532-2.0798 8.311-4.6398 12.057-7.7012 2.8138-2.2998 5.3774-4.7843 7.7012-7.418z" fill="#ffab00" fill-rule="evenodd"/>
   <rect width="108" height="108" fill="#ffab00" shape-rendering="crispEdges" style="paint-order:normal"/>
   <path d="m0 0v3.8359c38.715 6.4897 57.48 20.986 54 50.164 22.35-9.5787 28.368-27.329 22.002-54zm30.078 45.055c-9.9016 0.03123-19.805 4.674-30.078 13.479v49.467h31.998c-6.3672-26.672-0.35088-44.423 22-54.002-8.099-6.0591-16.01-8.9683-23.92-8.9434zm77.922 4.4102c-18.482 15.841-35.764 18.182-54.002 4.5371-3.4801 29.179 15.285 43.675 54.002 50.164z" fill="#ff6d00" shape-rendering="crispEdges" style="paint-order:normal"/>
   <circle cx="54" cy="54" r="77" fill="#ff5722" style="paint-order:normal"/>
   <path d="m24.559-17.078a77 77 0 0 0-40.504 39.072l69.945 32.006z" fill="#f44336"/>
   <path d="m-0.41406-0.41406a77 77 0 0 0-22.334 49.387l76.748 5.0273z" fill="#e91e63"/>
   <path d="m-17.115 24.543a77 77 0 0 0-5.8848 29.457 77 77 0 0 0 4.2031 24.801l72.797-24.801z" fill="#9c27b0"/>
   <path d="m-23 54a77 77 0 0 0 19.623 51.209l57.377-51.209z" fill="#673ab7"/>
   <path d="m54 54-71.078 29.441a77 77 0 0 0 39.197 40.564z" fill="#3f51b5"/>
   <path d="m54 54-54.414 54.414a77 77 0 0 0 51.486 22.439z" fill="#2196f3"/>
   <path d="m54 54-29.457 71.115a77 77 0 0 0 29.457 5.8848 77 77 0 0 0 24.52-4.1094z" fill="#03a9f4"/>
   <path d="m54 54v77a77 77 0 0 0 49.971-18.535z" fill="#00bcd4"/>
   <path d="m54 54 29.441 71.078a77 77 0 0 0 39.197-36.365z" fill="#009688"/>
   <path d="m54 54 54.414 54.414a77 77 0 0 0 22.293-48.559z" fill="#4caf50"/>
   <path d="m126.39 27.967-72.389 26.033 71.115 29.457a77 77 0 0 0 5.8848-29.457 77 77 0 0 0-4.6113-26.033z" fill="#8bc34a"/>
   <path d="m110.99 2.3496-56.99 51.65h77a77 77 0 0 0-20.01-51.65z" fill="#cddc39"/>
   <path d="m88.16-14.904-34.16 68.904 71.078-29.441a77 77 0 0 0-36.918-39.463z" fill="#ffeb3b"/>
   <path d="m59.086-22.746-5.0859 76.746 54.414-54.414a77 77 0 0 0-49.328-22.332z" fill="#ffc107"/>
   <path d="m54-23v77l29.457-71.115a77 77 0 0 0-29.457-5.8848z" fill="#ff9800"/>
  </g>
  <path d="m54 28a2.0002 2.0002 0 1 0 0 4c7.1902 0 13.865 3.5119 17.963 9.3184l-2.6152 1.5098c0.38193 0.52461 0.74619 1.0647 1.0762 1.6328 0.3601 0.5959 0.59188 1.2768 0.68945 1.9668l4.6699-2.6953a2.0003 2.0003 0 0 0 0.73438-2.7324c-4.6428-8.0417-13.232-13-22.518-13zm0 10a2.0002 2.0002 0 1 0 0 4c3.6122 0 6.983 1.6241 9.2402 4.3535l-2.6484 1.5293a9 9 0 0 1 2 3.4668l4.1387-2.3906a2.0002 2.0002 0 0 0 1.125-2.959c-2.8565-4.9476-8.1424-8-13.855-8zm-20.754 1.9746a2.0002 2.0002 0 0 0-1.7637 1.0254c-4.6428 8.0417-4.6428 17.958 0 26a2.0003 2.0003 0 1 0 3.4648-2c-3.5953-6.2272-3.8924-13.765-0.91211-20.217l2.6133 1.5098c0.26608-0.59948 0.55548-1.1919 0.88672-1.7676 0.3473-0.61772 0.81982-1.1395 1.3711-1.5508l-4.4102-2.5449a2.0002 2.0002 0 0 0-1.25-0.45508zm8.6602 5a2.0002 2.0002 0 0 0-1.7617 1.0254c-2.8565 4.9476-2.8565 11.052 0 16a2.0002 2.0002 0 1 0 3.4629-2c-1.8061-3.1283-2.0848-6.8602-0.84961-10.18l2.6426 1.5254a9 9 0 0 1 2.0098-3.459l-4.252-2.4551a2.0002 2.0002 0 0 0-1.252-0.45703zm12.094 3.0254a6 6 0 0 0-6 6 6 6 0 0 0 6 6 6 6 0 0 0 6-6 6 6 0 0 0-6-6zm12.156 10.975a2.0002 2.0002 0 0 0-1.7637 1.0254c-1.8065 3.1289-4.8993 5.2366-8.3926 5.8262v-3.0625a9 9 0 0 1-2 0.23633 9 9 0 0 1-2-0.23438v4.9102a2.0002 2.0002 0 0 0 2 2.3242c5.713 0 10.999-3.0524 13.855-8a2.0002 2.0002 0 0 0-1.6992-3.0254zm8.6602 5a2.0002 2.0002 0 0 0-1.7637 1.0254c-3.5953 6.2272-9.975 10.253-17.053 10.898v-3.0176c-0.65228 0.069171-1.3104 0.11432-1.9746 0.11524-0.6897 0.007114-1.3873-0.13788-2.0254-0.40039v5.0801a2.0002 2.0002 0 0 0 2 2.3242c9.2857 0 17.875-4.9583 22.518-13a2.0002 2.0002 0 0 0-1.7012-3.0254z" fill="#fff" stroke="#424242"/>
  <path d="m54 28a2.0002 2.0002 0 1 0 0 4c7.1902 0 13.865 3.5119 17.963 9.3184l-2.6152 1.5098c0.38193 0.52461 0.74619 1.0647 1.0762 1.6328 0.3601 0.5959 0.59188 1.2768 0.68945 1.9668l4.6699-2.6953a2.0003 2.0003 0 0 0 0.73438-2.7324c-4.6428-8.0417-13.232-13-22.518-13zm0 10a2.0002 2.0002 0 1 0 0 4c3.6122 0 6.983 1.6241 9.2402 4.3535l-2.6484 1.5293a9 9 0 0 1 2 3.4668l4.1387-2.3906a2.0002 2.0002 0 0 0 1.125-2.959c-2.8565-4.9476-8.1424-8-13.855-8zm-20.754 1.9746a2.0002 2.0002 0 0 0-1.7637 1.0254c-4.6428 8.0417-4.6428 17.958 0 26a2.0003 2.0003 0 1 0 3.4648-2c-3.5953-6.2272-3.8924-13.765-0.91211-20.217l2.6133 1.5098c0.26608-0.59948 0.55548-1.1919 0.88672-1.7676 0.3473-0.61772 0.81982-1.1395 1.3711-1.5508l-4.4102-2.5449a2.0002 2.0002 0 0 0-1.25-0.45508zm8.6602 5a2.0002 2.0002 0 0 0-1.7617 1.0254c-2.8565 4.9476-2.8565 11.052 0 16a2.0002 2.0002 0 1 0 3.4629-2c-1.8061-3.1283-2.0848-6.8602-0.84961-10.18l2.6426 1.5254a9 9 0 0 1 2.0098-3.459l-4.252-2.4551a2.0002 2.0002 0 0 0-1.252-0.45703zm12.094 3.0254a6 6 0 0 0-6 6 6 6 0 0 0 6 6 6 6 0 0 0 6-6 6 6 0 0 0-6-6zm12.156 10.975a2.0002 2.0002 0 0 0-1.7637 1.0254c-1.8065 3.1289-4.8993 5.2366-8.3926 5.8262v-3.0625a9 9 0 0 1-2 0.23633 9 9 0 0 1-2-0.23438v4.9102a2.0002 2.0002 0 0 0 2 2.3242c5.713 0 10.999-3.0524 13.855-8a2.0002 2.0002 0 0 0-1.6992-3.0254zm8.6602 5a2.0002 2.0002 0 0 0-1.7637 1.0254c-3.5953 6.2272-9.975 10.253-17.053 10.898v-3.0176c-0.65228 0.069171-1.3104 0.11432-1.9746 0.11524-0.6897 0.007114-1.3873-0.13788-2.0254-0.40039v5.0801a2.0002 2.0002 0 0 0 2 2.3242c9.2857 0 17.875-4.9583 22.518-13a2.0002 2.0002 0 0 0-1.7012-3.0254z" fill="#fff"/>
  <g shape-rendering="crispEdges">
   <path d="m54 25.045a28.941 28.941 0 0 1 3.6504 0.25977l0.84375 2.957a26.14 26.14 0 0 1 5.6504 1.6367l2.2832-2.0078a28.941 28.941 0 0 1 6.1582 3.9141l-0.90039 2.9785a26.14 26.14 0 0 1 3.8438 4.4277l3.0527-0.46094a28.941 28.941 0 0 1 3.0215 6.6445l-2.3281 1.9883a26.14 26.14 0 0 1 0.83594 5.8203l2.8047 1.2559a28.941 28.941 0 0 1-1.0488 7.2246l-3.0352 0.41406a26.14 26.14 0 0 1-2.4512 5.332l1.6934 2.5918a28.941 28.941 0 0 1-4.7969 5.502l-2.7695-1.2891a26.14 26.14 0 0 1-4.9473 3.1797l0.02148 3.0547a28.941 28.941 0 0 1-6.9961 2.0762l-1.6562-2.6152a26.14 26.14 0 0 1-2.9297 0.19726 26.14 26.14 0 0 1-2.9414-0.18359l-1.6328 2.584a28.941 28.941 0 0 1-7.0098-2.0371l0.02344-3.0957a26.14 26.14 0 0 1-4.9473-3.1621l-2.7773 1.293a28.941 28.941 0 0 1-4.7852-5.5078l1.6855-2.584a26.14 26.14 0 0 1-2.4316-5.3359l-3.082-0.41992a28.941 28.941 0 0 1-1.0254-7.2148l2.8242-1.2656a26.14 26.14 0 0 1 0.83789-5.8047l-2.3652-2.0176a28.941 28.941 0 0 1 3.0625-6.623l3.0039 0.45508a26.14 26.14 0 0 1 3.8711-4.4316l-0.88672-2.9434a28.941 28.941 0 0 1 6.1426-3.9473l2.3086 2.0293a26.14 26.14 0 0 1 5.6367-1.6777l0.83594-2.9219a28.941 28.941 0 0 1 3.6523-0.26953z" display="inline" fill="#424242" stroke="#fafafa" stroke-linecap="round" style="paint-order:normal"/>
   <circle cx="54" cy="54" r="19" display="inline" fill="#fafafa" style="paint-order:normal"/>
   <path d="m45.146 42.854v3.8105c8.9643 0 16.189 7.2251 16.189 16.189h3.8105c0-11.023-8.9769-20-20-20zm0 6.668v3.8086c5.2824 0 9.5234 4.241 9.5234 9.5234h3.8086c0-7.3412-5.9908-13.332-13.332-13.332zm2.8574 7.6191a2.8571 2.8571 0 0 0-2.8574 2.8555 2.8571 2.8571 0 0 0 2.8574 2.8574 2.8571 2.8571 0 0 0 2.8555-2.8574 2.8571 2.8571 0 0 0-2.8555-2.8555z" display="inline" fill="#424242" style="paint-order:normal"/>
  </g>
  <g clip-path="url(#clipPath5166)" shape-rendering="crispEdges">
   <circle cx="54" cy="54" r="77" display="inline" fill="#ff5722" style="paint-order:normal"/>
   <path d="m24.559-17.078c-17.948 7.4469-32.416 21.404-40.504 39.072l69.945 32.006z" display="inline" fill="#f44336"/>
   <path d="m-0.41406-0.41406c-13.184 13.211-21.121 30.762-22.334 49.387l76.748 5.0273z" display="inline" fill="#e91e63"/>
   <path d="m-17.115 24.543c-3.8764 9.3375-5.8761 19.347-5.8848 29.457 0.03212 8.4414 1.4521 16.82 4.2031 24.801l72.797-24.801z" display="inline" fill="#9c27b0"/>
   <path d="m-23 54c0.0348 18.899 7.0191 37.126 19.623 51.209l57.377-51.209z" display="inline" fill="#673ab7"/>
   <path d="m54 54-71.078 29.441c7.4643 17.993 21.471 32.488 39.197 40.564z" display="inline" fill="#3f51b5"/>
   <path d="m54 54-54.414 54.414c13.725 13.695 32.111 21.709 51.486 22.439z" display="inline" fill="#2196f3"/>
   <path d="m54 54-29.457 71.115c9.3375 3.8764 19.347 5.8761 29.457 5.8848 8.3418-0.0326 16.623-1.4204 24.52-4.1094z" display="inline" fill="#03a9f4"/>
   <path d="m54 54v77c18.332-0.0328 36.051-6.6052 49.971-18.535z" display="inline" fill="#00bcd4"/>
   <path d="m54 54 29.441 71.078c16.99-7.0506 30.895-19.951 39.197-36.365z" display="inline" fill="#009688"/>
   <path d="m54 54 54.414 54.414c12.989-13.006 20.896-30.23 22.293-48.559z" display="inline" fill="#4caf50"/>
   <path d="m126.39 27.967-72.389 26.033 71.115 29.457c3.8764-9.3375 5.8761-19.347 5.8848-29.457-0.0247-8.8787-1.5848-17.686-4.6113-26.033z" display="inline" fill="#8bc34a"/>
   <path d="m110.99 2.3496-56.99 51.65h77c-0.032-19.103-7.1638-37.512-20.01-51.65z" display="inline" fill="#cddc39"/>
   <path d="m88.16-14.904-34.16 68.904 71.078-29.441c-7.1344-17.182-20.249-31.201-36.918-39.463z" display="inline" fill="#ffeb3b"/>
   <path d="m59.086-22.746-5.0859 76.746 54.414-54.414c-13.197-13.171-30.724-21.106-49.328-22.332z" display="inline" fill="#ffc107"/>
   <path d="m54-23v77l29.457-71.115c-9.3375-3.8764-19.347-5.8761-29.457-5.8848z" display="inline" fill="#ff9800"/>
  </g>
  <g>
   <path d="m45.146 42.854v3.8105c8.9643 0 16.189 7.2251 16.189 16.189h3.8105c0-11.023-8.9769-20-20-20zm0 6.668v3.8086c5.2824 0 9.5234 4.241 9.5234 9.5234h3.8086c0-7.3412-5.9908-13.332-13.332-13.332zm2.8574 7.6191a2.8571 2.8571 0 0 0-2.8574 2.8555 2.8571 2.8571 0 0 0 2.8574 2.8574 2.8571 2.8571 0 0 0 2.8555-2.8574 2.8571 2.8571 0 0 0-2.8555-2.8555z" display="inline" fill="#424242" shape-rendering="crispEdges" style="paint-order:normal"/>
   <path d="m54 25a29 29 0 0 0-4.8105 0.4082l-0.60547 3.1934a26 26 0 0 0-8.7383 3.5938l-2.6367-1.7949a29 29 0 0 0-6.8184 6.7969l1.8164 2.666a26 26 0 0 0-3.627 8.7246l-3.1445 0.59766a29 29 0 0 0-0.43555 4.8145 29 29 0 0 0 0.4082 4.8105l3.1934 0.60547a26 26 0 0 0 3.5938 8.7383l-1.7949 2.6367a29 29 0 0 0 6.7969 6.8184l2.666-1.8164a26 26 0 0 0 8.7246 3.627l0.59766 3.1445a29 29 0 0 0 4.8145 0.43555 29 29 0 0 0 4.8105-0.4082l0.60547-3.1934a26 26 0 0 0 8.7383-3.5938l2.6367 1.7949a29 29 0 0 0 6.8184-6.7969l-1.8164-2.666a26 26 0 0 0 3.627-8.7246l3.1445-0.59766a29 29 0 0 0 0.43555-4.8145 29 29 0 0 0-0.4082-4.8105l-3.1934-0.60547a26 26 0 0 0-3.5938-8.7383l1.7949-2.6367a29 29 0 0 0-6.7969-6.8184l-2.666 1.8164a26 26 0 0 0-8.7246-3.627l-0.59766-3.1445a29 29 0 0 0-4.8145-0.43555z" fill="#fff" stroke="#212121" stroke-linecap="round" stroke-width="2" style="paint-order:normal"/>
   <path d="m54 35a19 19 0 0 1 19 19 19 19 0 0 1-19 19 19 19 0 0 1-19-19 19 19 0 0 1 19-19z" fill="#fff" style="paint-order:normal"/>
  </g>
  <g clip-path="url(#clipPath5332)" shape-rendering="crispEdges">
   <circle cx="54" cy="54" r="77" display="inline" fill="#ff9800" style="paint-order:normal"/>
   <path d="m24.559-17.078c-17.948 7.4469-32.416 21.404-40.504 39.072l69.945 32.006z" display="inline" fill="#f44336"/>
   <path d="m-0.41406-0.41406c-13.184 13.211-21.121 30.762-22.334 49.387l76.748 5.0273z" display="inline" fill="#f44336"/>
   <path d="m-17.115 24.543c-3.8764 9.3375-5.8761 19.347-5.8848 29.457 0.03212 8.4414 1.4521 16.82 4.2031 24.801l72.797-24.801z" display="inline" fill="#9c27b0"/>
   <path d="m-23 54c0.0348 18.899 7.0191 37.126 19.623 51.209l57.377-51.209z" display="inline" fill="#9c27b0"/>
   <path d="m54 54-71.078 29.441c7.4643 17.993 21.471 32.488 39.197 40.564z" display="inline" fill="#2196f3"/>
   <path d="m54 54-54.414 54.414c13.725 13.695 32.111 21.709 51.486 22.439z" display="inline" fill="#2196f3"/>
   <path d="m54 54-29.457 71.115c9.3375 3.8764 19.347 5.8761 29.457 5.8848 8.3418-0.0326 16.623-1.4204 24.52-4.1094z" display="inline" fill="#03a9f4"/>
   <path d="m54 54v77c18.332-0.0328 36.051-6.6052 49.971-18.535z" display="inline" fill="#03a9f4"/>
   <path d="m54 54 29.441 71.078c16.99-7.0506 30.895-19.951 39.197-36.365z" display="inline" fill="#009688"/>
   <path d="m54 54 54.414 54.414c12.989-13.006 20.896-30.23 22.293-48.559z" display="inline" fill="#009688"/>
   <path d="m126.39 27.967-72.389 26.033 71.115 29.457c3.8764-9.3375 5.8761-19.347 5.8848-29.457-0.0247-8.8787-1.5848-17.686-4.6113-26.033z" display="inline" fill="#8bc34a"/>
   <path d="m110.99 2.3496-56.99 51.65h77c-0.032-19.103-7.1638-37.512-20.01-51.65z" display="inline" fill="#8bc34a"/>
   <path d="m88.16-14.904-34.16 68.904 71.078-29.441c-7.1344-17.182-20.249-31.201-36.918-39.463z" display="inline" fill="#ffeb3b"/>
   <path d="m59.086-22.746-5.0859 76.746 54.414-54.414c-13.197-13.171-30.724-21.106-49.328-22.332z" display="inline" fill="#ffeb3b"/>
   <path d="m54-23v77l29.457-71.115c-9.3375-3.8764-19.347-5.8761-29.457-5.8848z" display="inline" fill="#ff9800"/>
  </g>
  <path d="m42.646 40.354v4.7637l4.1055 4.1055c-1.3163-0.3364-2.6871-0.53516-4.1055-0.53516v4.7617l5.1211 5.1211c-0.48287-0.23398-1.0123-0.35614-1.5488-0.35742-1.9716-4.63e-4 -3.5706 1.5968-3.5723 3.5684-2.32e-4 0.98936 0.40238 1.883 1.0508 2.5312l15.619 15.615 0.09961-0.5293a26 26 0 0 0 8.7383-3.5938l2.6367 1.7949a29 29 0 0 0 6.8184-6.7969l-1.8164-2.666a26 26 0 0 0 1.75-3.2207c-6.4281-6.4268-13.966-13.96-17.213-17.213-4.5289-4.537-10.786-7.3496-17.684-7.3496z" display="inline" fill="#212121" fill-opacity=".3098" shape-rendering="crispEdges" style="paint-order:normal"/>
  <path d="m42.646 40.354v4.7632c11.205 0 20.237 9.0314 20.237 20.237h4.7632c0-13.779-11.221-25-25-25zm0 8.335v4.7607c6.603 0 11.904 5.3013 11.904 11.904h4.7607c0-9.1765-7.4885-16.665-16.665-16.665zm3.5718 9.5239a3.5714 3.5714 0 0 0-3.5718 3.5693 3.5714 3.5714 0 0 0 3.5718 3.5718 3.5714 3.5714 0 0 0 3.5693-3.5718 3.5714 3.5714 0 0 0-3.5693-3.5693z" display="inline" fill="#fafafa" shape-rendering="crispEdges" stroke="#212121" stroke-linecap="round" style="paint-order:normal"/>
  <g clip-path="url(#clipPath5332)" shape-rendering="crispEdges">
   <circle cx="54" cy="54" r="77" display="inline" fill="#f44336" style="paint-order:normal"/>
   <path d="m-23 54c0.01877 10.193 2.075 20.183 5.9277 29.439l-0.0059 2e-3c0.02922 0.07045 0.06237 0.13865 0.0918 0.20898 0.3598 0.85731 0.73813 1.7067 1.1289 2.5508 0.13811 0.29923 0.27423 0.59937 0.41602 0.89648 0.33405 0.69792 0.68388 1.3882 1.0391 2.0762 0.21202 0.41185 0.42149 0.82499 0.64062 1.2324 0.30144 0.55891 0.6162 1.1104 0.93164 1.6621 0.29049 0.50944 0.57922 1.0195 0.88086 1.5215 0.25976 0.43118 0.53237 0.85488 0.80078 1.2812 0.38032 0.60567 0.76168 1.2106 1.1582 1.8047 0.18498 0.27645 0.37772 0.54804 0.56641 0.82227 0.50372 0.73386 1.0128 1.4627 1.541 2.1777 0.074308 0.10036 0.15174 0.1988 0.22656 0.29883 2.2216 2.9771 4.6552 5.7831 7.2773 8.4043l-0.035156 0.0352c3.0791 3.0724 6.4033 5.8418 9.9102 8.3242 0.03995 0.0283 0.079133 0.0577 0.11914 0.0859 0.88864 0.62651 1.7905 1.2311 2.7031 1.8184 0.13816 0.0891 0.27528 0.17934 0.41406 0.26758 0.83235 0.52807 1.6744 1.0381 2.5254 1.5332 0.21597 0.12595 0.4311 0.25303 0.64844 0.37695 0.76858 0.43724 1.5455 0.85736 2.3281 1.2676 0.32945 0.17311 0.6579 0.34711 0.99023 0.51563 0.69417 0.35113 1.3953 0.68773 2.0996 1.0176 0.26682 0.12529 0.52638 0.26241 0.79492 0.38477l0.0059-0.0137c0.80892 0.36761 1.6241 0.71918 2.4453 1.0586l-0.02734 0.0644c9.3374 3.8764 19.347 5.8761 29.457 5.8848 8.3418-0.0326 16.623-1.4204 24.52-4.1094l-24.52-72.891z" display="inline" fill="#ff9800"/>
   <path d="m126.39 27.967-72.389 26.033v77c13.509-0.0242 26.68-3.612 38.248-10.266 0.14906-0.0855 0.30274-0.1635 0.45117-0.25 0.59012-0.34471 1.1686-0.70957 1.75-1.0703 0.40917-0.25331 0.82451-0.49709 1.2285-0.75781 0.28878-0.18677 0.56901-0.38736 0.85547-0.57813 4.2676-2.8358 8.2401-6.08 11.852-9.6934l0.0293 0.0293c7.1957-7.2055 12.823-15.71 16.656-24.975l0.0449 0.01758c3.8764-9.3375 5.8761-19.347 5.8848-29.457-0.0247-8.8787-1.5848-17.686-4.6113-26.033z" display="inline" fill="#3f51b5"/>
   <path d="m54-23v77h77c-0.0171-10.194-2.0754-20.184-5.9258-29.439l4e-3 -2e-3c-0.0191-0.04614-0.0413-0.09063-0.0605-0.13672-0.38931-0.9307-0.7969-1.8525-1.2227-2.7676-0.083-0.17868-0.1657-0.35723-0.25-0.53516-0.40283-0.84871-0.82188-1.6894-1.2559-2.5234-0.11429-0.22004-0.22936-0.43942-0.3457-0.6582-0.39977-0.75054-0.81144-1.4947-1.2363-2.2324-0.18791-0.32676-0.37974-0.65091-0.57226-0.97461-0.3792-0.63654-0.76614-1.2684-1.1641-1.8945-0.24205-0.38145-0.48778-0.75988-0.73632-1.1367-0.38728-0.58631-0.78174-1.1678-1.1856-1.7441-0.27375-0.39131-0.55317-0.77815-0.83399-1.1641-0.38187-0.52401-0.76642-1.0455-1.1621-1.5605-0.34555-0.45051-0.69941-0.89338-1.0547-1.3359-0.35697-0.44401-0.71463-0.88746-1.082-1.3242-0.43037-0.51235-0.871-1.0148-1.3145-1.5156-0.20661-0.23302-0.40166-0.47431-0.61133-0.70508l-0.01 0.00977c-0.84604-0.93252-1.7127-1.8463-2.6035-2.7363l0.0371-0.037109c-7.2092-7.195-15.717-12.815-24.98-16.644l0.02344-0.05664c-9.3375-3.8764-19.347-5.8761-29.457-5.8848z" display="inline" fill="#4caf50"/>
  </g>
  <path d="m42.646 40.354v4.7637l4.1055 4.1055c-1.3163-0.3364-2.6871-0.53516-4.1055-0.53516v4.7617l5.1211 5.1211c-0.48287-0.23398-1.0123-0.35614-1.5488-0.35742-1.9716-4.63e-4 -3.5706 1.5968-3.5723 3.5684-2.32e-4 0.98936 0.40238 1.883 1.0508 2.5312l15.619 15.615 0.09961-0.5293a26 26 0 0 0 8.7383-3.5938l2.6367 1.7949a29 29 0 0 0 6.8184-6.7969l-1.8164-2.666a26 26 0 0 0 1.75-3.2207c-6.4281-6.4268-13.966-13.96-17.213-17.213-4.5289-4.537-10.786-7.3496-17.684-7.3496z" display="inline" fill="#212121" fill-opacity=".3098" shape-rendering="crispEdges" style="paint-order:normal"/>
  <g>
   <path d="m54 25a29 29 0 0 0-4.8105 0.4082l-0.60547 3.1934a26 26 0 0 0-8.7383 3.5938l-2.6367-1.7949a29 29 0 0 0-6.8184 6.7969l1.8164 2.666a26 26 0 0 0-3.627 8.7246l-3.1445 0.59766a29 29 0 0 0-0.43555 4.8145 29 29 0 0 0 0.4082 4.8105l3.1934 0.60547a26 26 0 0 0 3.5938 8.7383l-1.7949 2.6367a29 29 0 0 0 6.7969 6.8184l2.666-1.8164a26 26 0 0 0 8.7246 3.627l0.59766 3.1445a29 29 0 0 0 4.8145 0.43555 29 29 0 0 0 4.8105-0.4082l0.60547-3.1934a26 26 0 0 0 8.7383-3.5938l2.6367 1.7949a29 29 0 0 0 6.8184-6.7969l-1.8164-2.666a26 26 0 0 0 3.627-8.7246l3.1445-0.59766a29 29 0 0 0 0.43555-4.8145 29 29 0 0 0-0.4082-4.8105l-3.1934-0.60547a26 26 0 0 0-3.5938-8.7383l1.7949-2.6367a29 29 0 0 0-6.7969-6.8184l-2.666 1.8164a26 26 0 0 0-8.7246-3.627l-0.59766-3.1445a29 29 0 0 0-4.8145-0.43555z" fill="#ff6d00" stroke="#212121" stroke-linecap="round" style="paint-order:normal"/>
   <path d="m42.646 40.354v4.7632c11.205 0 20.237 9.0314 20.237 20.237h4.7632c0-13.779-11.221-25-25-25zm0 8.335v4.7607c6.603 0 11.904 5.3013 11.904 11.904h4.7607c0-9.1765-7.4885-16.665-16.665-16.665zm3.5718 9.5239a3.5714 3.5714 0 0 0-3.5718 3.5693 3.5714 3.5714 0 0 0 3.5718 3.5718 3.5714 3.5714 0 0 0 3.5693-3.5718 3.5714 3.5714 0 0 0-3.5693-3.5693z" display="inline" fill="#fafafa" shape-rendering="crispEdges" stroke="#212121" stroke-linecap="round" style="paint-order:normal"/>
   <circle cx="54" cy="54" r="18" fill="#ff6d00" style="paint-order:normal"/>
   <path d="m54 25a29 29 0 0 0-4.8105 0.4082l-0.60547 3.1934a26 26 0 0 0-8.7383 3.5938l-2.6367-1.7949a29 29 0 0 0-6.8184 6.7969l1.8164 2.666a26 26 0 0 0-3.627 8.7246l-3.1445 0.59766a29 29 0 0 0-0.43555 4.8145 29 29 0 0 0 0.4082 4.8105l3.1934 0.60547a26 26 0 0 0 3.5938 8.7383l-1.7949 2.6367a29 29 0 0 0 6.7969 6.8184l2.666-1.8164a26 26 0 0 0 8.7246 3.627l0.59766 3.1445a29 29 0 0 0 4.8145 0.43555 29 29 0 0 0 4.8105-0.4082l0.60547-3.1934a26 26 0 0 0 8.7383-3.5938l2.6367 1.7949a29 29 0 0 0 6.8184-6.7969l-1.8164-2.666a26 26 0 0 0 3.627-8.7246l3.1445-0.59766a29 29 0 0 0 0.43555-4.8145 29 29 0 0 0-0.4082-4.8105l-3.1934-0.60547a26 26 0 0 0-3.5938-8.7383l1.7949-2.6367a29 29 0 0 0-6.7969-6.8184l-2.666 1.8164a26 26 0 0 0-8.7246-3.627l-0.59766-3.1445a29 29 0 0 0-4.8145-0.43555zm0 11a18 18 0 0 1 18 18 18 18 0 0 1-18 18 18 18 0 0 1-18-18 18 18 0 0 1 18-18z" fill="#eee" style="paint-order:normal"/>
   <path d="m49.312 44.716a10.512 10.512 0 0 0-3.3493 2.4952 14.717 14.717 0 0 1 0.11497-0.0042 14.717 14.717 0 0 1 14.717 14.717 14.717 14.717 0 0 1-0.0055 0.11497 10.512 10.512 0 0 0 2.4966-3.3506 17.52 17.52 0 0 0-13.973-13.972zm-3.2343 5.995a11.213 11.213 0 0 0-2.2748 0.23542 10.512 10.512 0 0 0-0.51738 3.055 8.4095 8.4095 0 0 1 2.7922-0.48727 8.4095 8.4095 0 0 1 8.4095 8.4095 8.4095 8.4095 0 0 1-0.48864 2.7963 10.512 10.512 0 0 0 3.0468-0.52422 11.213 11.213 0 0 0 0.245-2.2721 11.213 11.213 0 0 0-11.213-11.213zm2.1024 6.3071a2.8032 2.8032 0 0 0-2.8032 2.8032 2.8032 2.8032 0 0 0 2.8032 2.8032 2.8032 2.8032 0 0 0 2.8032-2.8032 2.8032 2.8032 0 0 0-2.8032-2.8032z" fill="#fafafa" style="paint-order:normal"/>
  </g>
 </g>
 <g transform="translate(-18,-18)">
  <path d="m53.34 43.043a10.98 10.98 0 0 0-6.8242 2.9336c0.1792-0.0063 0.35437-0.02734 0.53516-0.02734 8.308 0 15 6.692 15 15 0 0.17815-0.02124 0.35073-0.02734 0.52734a10.98 10.98 0 0 0 2.9258-6.8398c-1.9147-5.4038-6.2024-9.6859-11.609-11.594zm-6.2891 5.9062c-1.029 0-2.024 0.14441-2.9785 0.39062a10.98 10.98 0 0 0-1.0527 4.6602 10.98 10.98 0 0 0 2e-3 0.03516c1.182-0.68654 2.5545-1.0859 4.0293-1.0859 4.442 0 8 3.558 8 8 0 1.4748-0.3994 2.8473-1.0859 4.0293a10.98 10.98 0 0 0 0.03516 2e-3 10.98 10.98 0 0 0 4.6602-1.0508c0.24652-0.9551 0.39062-1.9508 0.39062-2.9805 0-6.6037-5.3963-12-12-12zm0.94922 7.5508c-1.933 0-3.5 1.567-3.5 3.5s1.567 3.5 3.5 3.5 3.5-1.567 3.5-3.5-1.567-3.5-3.5-3.5z" fill="#eee" style="paint-order:normal"/>
  <circle cx="54" cy="54" r="18" fill="#424242" style="paint-order:normal"/>
  <path d="m54.496 43.508a11 11 0 0 0-6.3164 2.0117 15 15 0 0 1 0.31641-0.01172 15 15 0 0 1 15 15 15 15 0 0 1-0.01758 0.33594 11 11 0 0 0 2.0176-6.3359 11 11 0 0 0-11-11zm-6 5.5a11.5 11.5 0 0 0-3.875 0.68359 11 11 0 0 0-1.1172 4.5664 8 8 0 0 1 4.9922-1.75 8 8 0 0 1 8 8 8 8 0 0 1-1.7539 4.9863 11 11 0 0 0 4.5625-1.1016 11.5 11.5 0 0 0 0.69141-3.8848 11.5 11.5 0 0 0-11.5-11.5zm0 7.5a4 4 0 0 0-4 4 4 4 0 0 0 4 4 4 4 0 0 0 4-4 4 4 0 0 0-4-4z" fill="#212121" opacity=".5" style="paint-order:normal"/>
  <path d="m53.996 43.008a11 11 0 0 0-6.3164 2.0117 15 15 0 0 1 0.31641-0.01172 15 15 0 0 1 15 15 15 15 0 0 1-0.01758 0.33594 11 11 0 0 0 2.0176-6.3359 11 11 0 0 0-11-11zm-6 5.5a11.5 11.5 0 0 0-3.875 0.68359 11 11 0 0 0-1.1172 4.5664 8 8 0 0 1 4.9922-1.75 8 8 0 0 1 8 8 8 8 0 0 1-1.7539 4.9863 11 11 0 0 0 4.5625-1.1016 11.5 11.5 0 0 0 0.69141-3.8848 11.5 11.5 0 0 0-11.5-11.5zm0 7.5a4 4 0 0 0-4 4 4 4 0 0 0 4 4 4 4 0 0 0 4-4 4 4 0 0 0-4-4z" fill="#eee" style="paint-order:normal"/>
  <g shape-rendering="crispEdges">
   <path d="m54.4 28.4a26 26 0 0 0-4.2598 0.35938l-0.47461 3.1602a23 23 0 0 0-7.8301 3.2246l-2.5332-1.873a26 26 0 0 0-6.0371 6.0215l1.8867 2.5547a23 23 0 0 0-3.252 7.8203l-3.1172 0.46875a26 26 0 0 0-0.38281 4.2637 26 26 0 0 0 0.35938 4.2598l3.1602 0.47461a23 23 0 0 0 3.2246 7.8301l-1.873 2.5332a26 26 0 0 0 6.0215 6.0371l2.5547-1.8867a23 23 0 0 0 7.8203 3.252l0.46875 3.1172a26 26 0 0 0 4.2637 0.38281 26 26 0 0 0 4.2598-0.35938l0.47461-3.1602a23 23 0 0 0 7.8301-3.2246l2.5332 1.873a26 26 0 0 0 6.0371-6.0215l-1.8867-2.5547a23 23 0 0 0 3.252-7.8203l3.1172-0.46875a26 26 0 0 0 0.38281-4.2637 26 26 0 0 0-0.35938-4.2598l-3.1602-0.47461a23 23 0 0 0-3.2246-7.8301l1.873-2.5332a26 26 0 0 0-6.0215-6.0371l-2.5547 1.8867a23 23 0 0 0-7.8203-3.252l-0.46875-3.1172a26 26 0 0 0-4.2637-0.38281zm0 9a17 17 0 0 1 17 17 17 17 0 0 1-17 17 17 17 0 0 1-17-17 17 17 0 0 1 17-17z" fill="#212121" opacity=".5" stroke="#212121" stroke-linecap="round" stroke-linejoin="round" stroke-width=".9" style="paint-order:normal"/>
   <path d="m53.8 27.8a26 26 0 0 0-4.2598 0.35938l-0.47461 3.1602a23 23 0 0 0-7.8301 3.2246l-2.5332-1.873a26 26 0 0 0-6.0371 6.0215l1.8867 2.5547a23 23 0 0 0-3.252 7.8203l-3.1172 0.46875a26 26 0 0 0-0.38281 4.2637 26 26 0 0 0 0.35938 4.2598l3.1602 0.47461a23 23 0 0 0 3.2246 7.8301l-1.873 2.5332a26 26 0 0 0 6.0215 6.0371l2.5547-1.8867a23 23 0 0 0 7.8203 3.252l0.46875 3.1172a26 26 0 0 0 4.2637 0.38281 26 26 0 0 0 4.2598-0.35938l0.47461-3.1602a23 23 0 0 0 7.8301-3.2246l2.5332 1.873a26 26 0 0 0 6.0371-6.0215l-1.8867-2.5547a23 23 0 0 0 3.252-7.8203l3.1172-0.46875a26 26 0 0 0 0.38281-4.2637 26 26 0 0 0-0.35938-4.2598l-3.1602-0.47461a23 23 0 0 0-3.2246-7.8301l1.873-2.5332a26 26 0 0 0-6.0215-6.0371l-2.5547 1.8867a23 23 0 0 0-7.8203-3.252l-0.46875-3.1172a26 26 0 0 0-4.2637-0.38281zm0 9a17 17 0 0 1 17 17 17 17 0 0 1-17 17 17 17 0 0 1-17-17 17 17 0 0 1 17-17z" fill="#fff" stroke="#fff" stroke-linecap="round" stroke-linejoin="round" stroke-width=".9" style="paint-order:normal"/>
   <path d="m54 28a26 26 0 0 0-4.2598 0.35938l-0.47461 3.1602a23 23 0 0 0-7.8301 3.2246l-2.5332-1.873a26 26 0 0 0-6.0371 6.0215l1.8867 2.5547a23 23 0 0 0-3.252 7.8203l-3.1172 0.46875a26 26 0 0 0-0.38281 4.2637 26 26 0 0 0 0.35938 4.2598l3.1602 0.47461a23 23 0 0 0 3.2246 7.8301l-1.873 2.5332a26 26 0 0 0 6.0215 6.0371l2.5547-1.8867a23 23 0 0 0 7.8203 3.252l0.46875 3.1172a26 26 0 0 0 4.2637 0.38281 26 26 0 0 0 4.2598-0.35938l0.47461-3.1602a23 23 0 0 0 7.8301-3.2246l2.5332 1.873a26 26 0 0 0 6.0371-6.0215l-1.8867-2.5547a23 23 0 0 0 3.252-7.8203l3.1172-0.46875a26 26 0 0 0 0.38281-4.2637 26 26 0 0 0-0.35938-4.2598l-3.1602-0.47461a23 23 0 0 0-3.2246-7.8301l1.873-2.5332a26 26 0 0 0-6.0215-6.0371l-2.5547 1.8867a23 23 0 0 0-7.8203-3.252l-0.46875-3.1172a26 26 0 0 0-4.2637-0.38281zm0 9a17 17 0 0 1 17 17 17 17 0 0 1-17 17 17 17 0 0 1-17-17 17 17 0 0 1 17-17z" fill="#eee" style="paint-order:normal"/>
  </g>
 </g>
 <g transform="translate(-18,-18)" display="none" fill="none">
  <rect x="18" y="18" width="72" height="72" style="paint-order:stroke fill markers"/>
  <circle cx="54" cy="54" r="33" stroke="#000" stroke-dasharray="0.3, 1.2" stroke-linejoin="round" stroke-width=".3" style="paint-order:normal"/>
  <circle cx="54" cy="54" r="26" stroke="#000" stroke-dasharray="0.3, 1.2" stroke-width=".3"/>
 </g>
</svg>
