<?xml version="1.0" encoding="UTF-8"?>
<svg width="24" height="24" version="1.1" viewBox="0 0 24 24" xmlns="http://www.w3.org/2000/svg">
 <path d="m6 3c-1.6447 0-3 1.3553-3 3v12c0 1.6447 1.3553 3 3 3h12c1.6447 0 3-1.3553 3-3v-12c0-1.6447-1.3553-3-3-3h-1v1 1h1c0.5713 0 1 0.4287 1 1v12c0 0.5713-0.4287 1-1 1h-12c-0.5713 0-1-0.4287-1-1v-12c0-0.5713 0.4287-1 1-1h1v-1-1h-1zm3 0v1 1h2v-1-1h-2zm4 0v1 1h2v-1-1h-2z"/>
 <path d="m7 2v2h2v-2h-2zm4 0v2h2v-2h-2zm4 0v2h2v-2h-2z" opacity=".75"/>
 <path d="m9 8h6c0 2-4 4-4 8v0" fill="none" stroke="#000" stroke-linecap="round" stroke-width="2"/>
</svg>
