<?xml version="1.0" encoding="UTF-8"?>
<svg width="24" height="24" version="1.1" viewBox="0 0 24 24" xmlns="http://www.w3.org/2000/svg">
 <path d="m12 3c-4.9587 0-9 4.0413-9 9s4.0413 9 9 9 9-4.0413 9-9c0-0.16486-0.016572-0.32556-0.025391-0.48828l-2.1914 2.1914c-0.75811 3.0478-3.4944 5.2969-6.7832 5.2969-3.8778 0-7-3.1222-7-7s3.1222-7 7-7c1.9389 0 3.6898 0.77965 4.9551 2.0449l1.4043-1.4043c-1.6302-1.6302-3.88-2.6406-6.3594-2.6406z" color="#000000" color-rendering="auto" dominant-baseline="auto" image-rendering="auto" opacity=".25" shape-rendering="auto" solid-color="#000000" stop-color="#000000" style="font-feature-settings:normal;font-variant-alternates:normal;font-variant-caps:normal;font-variant-east-asian:normal;font-variant-ligatures:normal;font-variant-numeric:normal;font-variant-position:normal;font-variation-settings:normal;inline-size:0;isolation:auto;mix-blend-mode:normal;shape-margin:0;shape-padding:0;text-decoration-color:#000000;text-decoration-line:none;text-decoration-style:solid;text-indent:0;text-orientation:mixed;text-transform:none;white-space:normal"/>
 <path d="m20.486 6.3438-8.4863 8.4844-4.2422-4.2422-1.4141 1.4141 5.6562 5.6562 9.9004-9.8984-1.4141-1.4141z"/>
</svg>
